<?xml version="1.0" encoding="UTF-8"?>
<svg version="1.1" xmlns="http://www.w3.org/2000/svg" width="288" height="288">
<path d="M0 0 C95.04 0 190.08 0 288 0 C288 95.04 288 190.08 288 288 C192.96 288 97.92 288 0 288 C0 192.96 0 97.92 0 0 Z " fill="#3E3E3D" transform="translate(0,0)"/>
<path d="M0 0 C2.62519199 1.21894206 4.97444775 2.4537992 7.4375 3.9375 C8.14430908 4.34935547 8.85111816 4.76121094 9.5793457 5.18554688 C11.72826099 6.44298027 13.86545198 7.71835899 16 9 C17.10859375 9.66128906 18.2171875 10.32257812 19.359375 11.00390625 C21.05407918 12.02033094 22.74864316 13.03700972 24.43920898 14.06030273 C30.77624998 17.89126968 37.16901314 21.62657658 43.56060791 25.365448 C65.55274682 38.23093578 65.55274682 38.23093578 75 44 C75.69464355 44.42394043 76.38928711 44.84788086 77.10498047 45.28466797 C79.32357055 46.64238499 81.53753201 48.00733301 83.75 49.375 C84.43102783 49.79257568 85.11205566 50.21015137 85.8137207 50.64038086 C91.99229792 54.48638221 91.99229792 54.48638221 94 57 C94.38311005 59.1199398 94.38311005 59.1199398 94.39440918 61.61703491 C94.40575897 62.56473251 94.41710876 63.51243011 94.42880249 64.48884583 C94.42587189 65.52683823 94.42294128 66.56483063 94.41992188 67.63427734 C94.42839142 68.72883743 94.43686096 69.82339752 94.44558716 70.9511261 C94.46903962 74.57951387 94.46997725 78.20747958 94.46875 81.8359375 C94.47584705 84.35316133 94.48354537 86.87038353 94.49182129 89.38760376 C94.50528541 94.66859267 94.50700697 99.94947244 94.50097656 105.23046875 C94.4943385 111.33082629 94.5171882 117.43057875 94.55429029 123.53081357 C94.58870437 129.40254649 94.59532265 135.2740415 94.59120178 141.14586258 C94.59289719 143.64256212 94.60257984 146.13926932 94.62034607 148.63590622 C94.64245055 152.12673816 94.63287508 155.61610717 94.61523438 159.10693359 C94.62849762 160.14087753 94.64176086 161.17482147 94.65542603 162.24009705 C94.57283163 169.26496204 94.57283163 169.26496204 91.59391785 173.08740234 C89.35160027 174.74075129 87.17508577 176.32376254 84.76953125 177.7265625 C83.97490479 178.19610352 83.18027832 178.66564453 82.36157227 179.14941406 C81.09978149 179.8798291 81.09978149 179.8798291 79.8125 180.625 C78.02536634 181.67332875 76.23892323 182.7228355 74.453125 183.7734375 C73.54884766 184.30420898 72.64457031 184.83498047 71.71289062 185.38183594 C69.06914945 186.95875427 66.46052831 188.58050448 63.859375 190.2265625 C63.05137451 190.73493652 62.24337402 191.24331055 61.41088867 191.76708984 C59.87709434 192.73561742 58.34833806 193.71218273 56.82543945 194.69775391 C50.34587436 198.75867256 50.34587436 198.75867256 46 198 C44.33746333 196.33746333 44.87664252 194.32857515 44.86766052 192.10806274 C44.86976028 191.40885712 44.87186005 190.70965149 44.87402344 189.98925781 C44.8721553 189.25587189 44.87028717 188.52248596 44.86836243 187.76687622 C44.86434889 186.16865644 44.86228272 184.57043089 44.86190033 182.97220612 C44.8584952 179.57550401 44.83714328 176.17899513 44.81666946 172.78236008 C44.77859995 166.45253808 44.74738329 160.12291815 44.74951172 153.79296875 C44.75029885 149.39544468 44.72693134 144.99862134 44.6876297 140.60128021 C44.67716424 138.92521057 44.67564973 137.2490601 44.68328094 135.57297516 C44.69290599 133.22398705 44.67171699 130.8771172 44.64355469 128.52832031 C44.65375137 127.83721161 44.66394806 127.14610291 44.67445374 126.43405151 C44.59297838 122.63817128 44.08739325 121.1054239 41.63252258 118.14407349 C38.93633075 115.94814421 36.2726707 114.1871827 33.24609375 112.4765625 C32.14330078 111.8475 31.04050781 111.2184375 29.90429688 110.5703125 C28.76025391 109.92835938 27.61621094 109.28640625 26.4375 108.625 C24.18604628 107.3466212 21.93474348 106.06797655 19.68359375 104.7890625 C18.57226074 104.16676758 17.46092773 103.54447266 16.31591797 102.90332031 C14.10629917 101.63501018 11.92210773 100.32133312 9.76611328 98.96386719 C1.92510324 93.9152376 1.92510324 93.9152376 -7 94 C-10.59084822 95.74262823 -13.87097399 97.84900949 -17.1875 100.0625 C-18.92220145 101.21258536 -20.66544087 102.34992232 -22.41796875 103.47265625 C-23.17875732 103.98062744 -23.9395459 104.48859863 -24.72338867 105.01196289 C-27.57917655 106.25135952 -29.0734748 105.92633014 -32 105 C-34.01979748 102.98020252 -33.17797402 98.84341354 -33.19287109 96.07128906 C-33.20513733 94.82490662 -33.20513733 94.82490662 -33.21765137 93.55334473 C-33.2425574 90.79077892 -33.25903587 88.02826473 -33.2734375 85.265625 C-33.27876118 84.32398247 -33.28408485 83.38233994 -33.28956985 82.41216278 C-33.3163259 77.42680168 -33.33569166 72.44146583 -33.35009766 67.45605469 C-33.36673864 62.30303149 -33.41150473 57.15064873 -33.4624691 51.99786758 C-33.49611205 48.03960426 -33.50767196 44.08149333 -33.51332474 40.12310028 C-33.52004695 38.22366195 -33.53529417 36.32423398 -33.55921555 34.42493439 C-33.59080306 31.7648548 -33.59091365 29.10650664 -33.58349609 26.44628906 C-33.59990143 25.66167297 -33.61630676 24.87705688 -33.63320923 24.06866455 C-33.58725655 20.04129647 -33.1988201 18.24367545 -30.61927795 15.08216858 C-26.33926777 11.67981768 -21.76570162 8.96118301 -17.0625 6.1875 C-16.08603516 5.59001953 -15.10957031 4.99253906 -14.10351562 4.37695312 C-13.15283203 3.81298828 -12.20214844 3.24902344 -11.22265625 2.66796875 C-10.36422119 2.15516357 -9.50578613 1.6423584 -8.62133789 1.11401367 C-5.50871991 -0.20878374 -3.35357009 -0.31268323 0 0 Z " fill="#F38215" transform="translate(147,30)"/>
<path d="M0 0 C1 1 1 1 1.12304783 3.71553135 C1.12166514 5.55036028 1.12166514 5.55036028 1.12025452 7.42225647 C1.12110894 8.10098059 1.12196337 8.7797047 1.12284368 9.47899622 C1.12450041 11.76995926 1.118974 14.06085026 1.11352539 16.35180664 C1.11324353 17.98740131 1.11340122 19.6229961 1.1139679 21.2585907 C1.11425593 25.71294586 1.10835824 30.16727434 1.10139394 34.62162328 C1.09516139 39.27146474 1.09455668 43.92130674 1.09336853 48.57115173 C1.09025492 57.38261702 1.08204113 66.19406997 1.07201904 75.00552982 C1.06085882 85.03438108 1.05534768 95.06323291 1.05032361 105.09208882 C1.03985854 125.72806611 1.02225853 146.36403228 1 167 C-3.68923289 168.14463089 -5.42137759 167.65373846 -9.61328125 165.16796875 C-10.68964844 164.53858398 -11.76601562 163.90919922 -12.875 163.26074219 C-14.02118923 162.5702519 -15.16701624 161.87916 -16.3125 161.1875 C-17.48249031 160.49413315 -18.65306638 159.80175379 -19.82421875 159.11035156 C-23.22844474 157.09363 -26.6148348 155.04855107 -30 153 C-30.90669434 152.45617676 -31.81338867 151.91235352 -32.74755859 151.35205078 C-35.00520162 149.99548655 -37.25518974 148.62767274 -39.5 147.25 C-40.14493408 146.85707764 -40.78986816 146.46415527 -41.4543457 146.05932617 C-44.39141367 144.21791826 -46.04362424 142.93456364 -48 140 C-48.25726891 137.89567757 -48.25726891 137.89567757 -48.26742554 135.42092896 C-48.27595551 134.48164551 -48.28448547 133.54236206 -48.29327393 132.57461548 C-48.29236755 131.54597382 -48.29146118 130.51733215 -48.29052734 129.45751953 C-48.29724457 128.37271301 -48.30396179 127.28790649 -48.31088257 126.17022705 C-48.32992284 122.57437595 -48.33378983 118.97871091 -48.3359375 115.3828125 C-48.34236125 112.88800987 -48.34908928 110.39320801 -48.35610962 107.89840698 C-48.36809749 102.66451812 -48.3718744 97.43067663 -48.37060547 92.19677734 C-48.369537 86.81905288 -48.38362369 81.44161553 -48.41162109 76.06396484 C-48.44491748 69.57657004 -48.45871821 63.0894335 -48.45738602 56.60195541 C-48.45974884 54.12758806 -48.46861044 51.65321817 -48.48405075 49.17889786 C-48.5036169 45.71938592 -48.49790878 42.26079589 -48.48583984 38.80126953 C-48.49707886 37.77667633 -48.50831787 36.75208313 -48.51989746 35.69644165 C-48.48100645 31.31581052 -48.45040376 28.7390768 -46.1342926 24.93852234 C-43.6883214 22.71691045 -41.26409799 21.12566194 -38.37890625 19.51171875 C-37.28408936 18.89111572 -36.18927246 18.2705127 -35.0612793 17.63110352 C-33.89517227 16.98296081 -32.7289099 16.33509749 -31.5625 15.6875 C-29.20350681 14.36069548 -26.84791172 13.02791003 -24.4921875 11.6953125 C-23.36651367 11.06012695 -22.24083984 10.42494141 -21.08105469 9.77050781 C-16.41429164 7.08878312 -11.90004955 4.20017396 -7.41796875 1.22265625 C-4.69961859 -0.15188915 -3.0062495 -0.34102307 0 0 Z " fill="#F07010" transform="translate(95,60)"/>
<path d="M0 0 C3.90456262 1.79384566 7.52912108 3.94010619 11.1875 6.1875 C12.17169922 6.76564453 13.15589844 7.34378906 14.16992188 7.93945312 C19.00303293 10.84720519 22.85347016 13.20934779 26 18 C26.3820812 20.69009731 26.5385788 22.96546715 26.50170898 25.6484375 C26.50711197 26.40191467 26.51251495 27.15539185 26.51808167 27.93170166 C26.53055137 30.41320524 26.51409065 32.89354456 26.49609375 35.375 C26.49624878 37.10465557 26.49773842 38.83431148 26.50050354 40.56396484 C26.50188674 44.18537796 26.48934291 47.80639466 26.46655273 51.42773438 C26.43816821 56.06489036 26.44090642 60.70138782 26.45364285 65.33859253 C26.46060471 68.90915531 26.45280496 72.47956645 26.44038582 76.05010986 C26.43587625 77.75969867 26.4355302 79.46930378 26.43945122 81.17889404 C26.44236847 83.5701218 26.42583284 85.96044871 26.40405273 88.3515625 C26.40855438 89.0550885 26.41305603 89.7586145 26.41769409 90.48345947 C26.35218448 94.82194734 25.63271603 97.53734842 23 101 C20.67163086 102.74511719 20.67163086 102.74511719 17.96484375 104.296875 C16.99095703 104.86277344 16.01707031 105.42867188 15.01367188 106.01171875 C13.99853516 106.58535156 12.98339844 107.15898437 11.9375 107.75 C10.91849609 108.33910156 9.89949219 108.92820312 8.84960938 109.53515625 C-1.32692914 115.40234545 -1.32692914 115.40234545 -7 115 C-9.62133789 113.90185547 -9.62133789 113.90185547 -12.22265625 112.3671875 C-13.17333984 111.80773437 -14.12402344 111.24828125 -15.10351562 110.671875 C-16.07998047 110.07890625 -17.05644531 109.4859375 -18.0625 108.875 C-19.53299805 108.02035156 -19.53299805 108.02035156 -21.03320312 107.1484375 C-26.16566357 104.0822018 -30.81083042 101.22037065 -34 96 C-34.48158571 93.20253553 -34.6775987 91.02138044 -34.63110352 88.23803711 C-34.63825882 87.48441391 -34.64541412 86.73079071 -34.65278625 85.95433044 C-34.66961333 83.47804034 -34.65030984 81.00357595 -34.62890625 78.52734375 C-34.62973542 76.79911652 -34.63219664 75.07088938 -34.63621521 73.34266663 C-34.63906897 69.72714396 -34.62441221 66.11224223 -34.59692383 62.49682617 C-34.56281579 57.86739763 -34.56887152 53.23907715 -34.5875864 48.6095953 C-34.59816423 45.04328711 -34.58921197 41.47723592 -34.57420158 37.91095161 C-34.56902675 36.20415574 -34.56949309 34.49733296 -34.57574654 32.7905407 C-34.58120944 30.40396438 -34.56079261 28.01896486 -34.53344727 25.63256836 C-34.53997314 24.9306134 -34.54649902 24.22865845 -34.55322266 23.50543213 C-34.46057187 18.73976461 -33.34207276 16.36251872 -30 13 C-26.41051982 10.42455779 -22.5395901 8.34572912 -18.6875 6.1875 C-17.66720703 5.59001953 -16.64691406 4.99253906 -15.59570312 4.37695312 C-5.63560365 -1.2565873 -5.63560365 -1.2565873 0 0 Z " fill="#F27517" transform="translate(148,143)"/>
<path d="M0 0 C3.71315029 1.44925755 7.08841504 3.09422498 10.54296875 5.08984375 C11.60918457 5.704646 12.67540039 6.31944824 13.77392578 6.95288086 C14.90040527 7.60780518 16.02688477 8.26272949 17.1875 8.9375 C18.35138239 9.61143947 19.51528225 10.28534877 20.67919922 10.95922852 C30.21112336 16.49053663 39.63977549 22.18311629 49 28 C47.87779278 32.23614646 46.10674773 33.97465678 42.40356445 36.23486328 C41.75476318 36.6111084 41.10596191 36.98735352 40.4375 37.375 C39.75582764 37.78347168 39.07415527 38.19194336 38.37182617 38.61279297 C36.81764568 39.54316598 35.26018994 40.46808091 33.70019531 41.38867188 C30.63042589 43.22054151 27.59285873 45.10058384 24.5546875 46.984375 C22.30770527 48.36525659 20.06030981 49.74546597 17.8125 51.125 C16.72573975 51.80095215 15.63897949 52.4769043 14.51928711 53.17333984 C13.48811768 53.79934082 12.45694824 54.4253418 11.39453125 55.0703125 C10.47518799 55.63508301 9.55584473 56.19985352 8.60864258 56.78173828 C5.80091439 58.09297494 4.05904805 58.33761957 1 58 C0 57 0 57 -0.12025452 54.71580505 C-0.11803391 53.70542679 -0.11581329 52.69504852 -0.11352539 51.65405273 C-0.11344986 50.5129454 -0.11337433 49.37183807 -0.11329651 48.19615173 C-0.10813522 46.9545076 -0.10297394 45.71286346 -0.09765625 44.43359375 C-0.0962413 43.16983414 -0.09482635 41.90607452 -0.09336853 40.60401917 C-0.08870582 37.23875111 -0.0797148 33.8735501 -0.06866455 30.50830078 C-0.05844846 27.0765033 -0.05387049 23.64469891 -0.04882812 20.21289062 C-0.0377738 13.47524176 -0.0210171 6.73762475 0 0 Z " fill="#ED6C0D" transform="translate(192,170)"/>
<path d="M0 0 C1 1 1 1 1.12025452 3.77772522 C1.11803391 5.01904709 1.11581329 6.26036896 1.11352539 7.53930664 C1.11367142 8.22220261 1.11381744 8.90509857 1.1139679 9.60868835 C1.11326876 11.87587614 1.1054764 14.14298274 1.09765625 16.41015625 C1.09579207 17.97814387 1.09436817 19.54613207 1.09336853 21.11412048 C1.08954334 25.24876503 1.07971306 29.38337466 1.06866455 33.51800537 C1.05845044 37.73400398 1.05387091 41.95000822 1.04882812 46.16601562 C1.03809079 54.44402647 1.02101436 62.7220089 1 71 C0.67 71 0.34 71 0 71 C0.24105469 69.8140625 0.48210937 68.628125 0.73046875 67.40625 C1.40694581 61.90701716 1.54674814 57.04288599 -1 52 C-7.62836557 45.68415458 -16.41450024 41.77288124 -24.56103516 37.73779297 C-29.23919955 35.37380219 -33.70758626 32.71535408 -38.1875 30 C-39.53382895 29.20607819 -40.88132612 28.41413094 -42.23046875 27.625 C-43.14441406 27.08875 -44.05835938 26.5525 -45 26 C-43.69192568 22.07577705 -42.2371064 21.70738195 -38.671875 19.70703125 C-37.56739014 19.07998291 -36.46290527 18.45293457 -35.32495117 17.80688477 C-34.13344117 17.14183827 -32.94178833 16.47704761 -31.75 15.8125 C-29.36378321 14.46724565 -26.98065205 13.11657479 -24.59765625 11.765625 C-22.8808667 10.79399414 -22.8808667 10.79399414 -21.12939453 9.80273438 C-16.4487542 7.10638173 -11.91618702 4.21089434 -7.41796875 1.22265625 C-4.69961859 -0.15188915 -3.0062495 -0.34102307 0 0 Z " fill="#F37F10" transform="translate(95,60)"/>
<path d="M0 0 C4.2129476 1.68517904 7.32315889 3.43476202 11 6 C10 9 10 9 7.75 10.75 C5 12 5 12 0 11 C0 7.37 0 3.74 0 0 Z " fill="#F47D21" transform="translate(115,124)"/>
</svg>
